# xmcd
#
# Track frame offsets:
# 150
# 11372
# 25907
# 37877
# 50080
# 59620
# 69542
# 77715
# 88997
# 99537
# 108630
# 120107
# 130660
# 141115
# 149460
# 158242
# 168487
# 178957
# 190825
# 200765
# 212080
# 223990
#
# Disc length: 3111 seconds
#
# Revision: 0
# Processed by: cddbd v1.5.1PL0 Copyright (c) Steve Scherf et al.
# Submitted via: MacMP3 Pro 5.0 (http://mp3.act2.co.jp/)
#
DISCID=4b0c2516
DTITLE=Gerry And The Pacemakers - Gerry And The Pacemakers
DYEAR=1900
DGENRE=
TTITLE0=Pretend
TTITLE1=I'll Be There
TTITLE2=Janbaraya
TTITLE3=You'll Never Walk Alone
TTITLE4=Maybellene
TTITLE5=A Shot Of Rhythm And Blues
TTITLE6=Here's Hoping
TTITLE7=Slow Down
TTITLE8=Ferry Cross The Mersey
TTITLE9=Chills
TTITLE10=Summertime
TTITLE11=You're The Reason
TTITLE12=You Can't Fool Me
TTITLE13=Don't You Ever
TTITLE14=How Do You Do It?
TTITLE15=I Like It
TTITLE16=I'm The One
TTITLE17=Don't Let The Sun Catch You Crying
TTITLE18=It's Gonna Be All Right
TTITLE19=Walk Hand In Hand
TTITLE20=La La La
TTITLE21=Girl On A Swing
EXTD=
EXTT0=
EXTT1=
EXTT2=
EXTT3=
EXTT4=
EXTT5=
EXTT6=
EXTT7=
EXTT8=
EXTT9=
EXTT10=
EXTT11=
EXTT12=
EXTT13=
EXTT14=
EXTT15=
EXTT16=
EXTT17=
EXTT18=
EXTT19=
EXTT20=
EXTT21=
PLAYORDER=
